# Blender 4.2.3 LTS
# www.blender.org
mtllib triplet_colours.mtl
o triplet
v 0.000000 0.162578 -0.010117
v 0.003460 0.162578 -0.009507
v 0.006503 0.162578 -0.007750
v 0.008761 0.162578 -0.005058
v 0.009963 0.162578 -0.001757
v 0.009963 0.162578 0.001757
v 0.008761 0.162578 0.005058
v 0.006503 0.162578 0.007750
v 0.003460 0.162578 0.009507
v 0.000000 0.162578 0.010117
v -0.003460 0.162578 0.009507
v -0.006503 0.162578 0.007750
v -0.008761 0.162578 0.005058
v -0.009963 0.162578 0.001757
v -0.009963 0.162578 -0.001757
v -0.008761 0.162578 -0.005058
v -0.006503 0.162578 -0.007750
v -0.003460 0.162578 -0.009507
v 0.000000 0.294086 -0.000000
v 0.000000 0.162578 -0.028457
v 0.009733 0.162578 -0.026741
v 0.018292 0.162578 -0.021799
v 0.024644 0.162578 -0.014228
v 0.028024 0.162578 -0.004941
v 0.028024 0.162578 0.004941
v 0.024644 0.162578 0.014228
v 0.018292 0.162578 0.021799
v 0.009733 0.162578 0.026741
v 0.000000 0.162578 0.028457
v -0.009733 0.162578 0.026741
v -0.018292 0.162578 0.021799
v -0.024644 0.162578 0.014228
v -0.028024 0.162578 0.004941
v -0.028024 0.162578 -0.004941
v -0.024644 0.162578 -0.014228
v -0.018292 0.162578 -0.021799
v -0.009733 0.162578 -0.026741
v 0.000000 -0.000000 -0.010117
v 0.003460 -0.000000 -0.009507
v 0.006503 -0.000000 -0.007750
v 0.008761 -0.000000 -0.005058
v 0.009963 -0.000000 -0.001757
v 0.009963 0.000000 0.001757
v 0.008761 0.000000 0.005058
v 0.006503 0.000000 0.007750
v 0.003460 0.000000 0.009507
v 0.000000 0.000000 0.010117
v -0.003460 0.000000 0.009507
v -0.006503 0.000000 0.007750
v -0.008761 0.000000 0.005058
v -0.009963 0.000000 0.001757
v -0.009963 -0.000000 -0.001757
v -0.008761 -0.000000 -0.005058
v -0.006503 -0.000000 -0.007750
v -0.003460 -0.000000 -0.009507
v 0.162578 -0.000000 -0.010117
v 0.162578 -0.003460 -0.009507
v 0.162578 -0.006503 -0.007750
v 0.162578 -0.008761 -0.005058
v 0.162578 -0.009963 -0.001757
v 0.162578 -0.009963 0.001757
v 0.162578 -0.008761 0.005058
v 0.162578 -0.006503 0.007750
v 0.162578 -0.003460 0.009507
v 0.162578 0.000000 0.010117
v 0.162578 0.003460 0.009507
v 0.162578 0.006503 0.007750
v 0.162578 0.008761 0.005058
v 0.162578 0.009963 0.001757
v 0.162578 0.009963 -0.001757
v 0.162578 0.008761 -0.005058
v 0.162578 0.006503 -0.007750
v 0.162578 0.003460 -0.009507
v 0.294086 0.000000 0.000000
v 0.162578 -0.000000 -0.028457
v 0.162578 -0.009733 -0.026741
v 0.162578 -0.018292 -0.021799
v 0.162578 -0.024644 -0.014228
v 0.162578 -0.028024 -0.004941
v 0.162578 -0.028024 0.004941
v 0.162578 -0.024644 0.014228
v 0.162578 -0.018292 0.021799
v 0.162578 -0.009733 0.026741
v 0.162578 0.000000 0.028457
v 0.162578 0.009733 0.026741
v 0.162578 0.018292 0.021799
v 0.162578 0.024644 0.014228
v 0.162578 0.028024 0.004941
v 0.162578 0.028024 -0.004941
v 0.162578 0.024644 -0.014228
v 0.162578 0.018292 -0.021799
v 0.162578 0.009733 -0.026741
v 0.000000 -0.000000 -0.010117
v 0.000000 -0.003460 -0.009507
v 0.000000 -0.006503 -0.007750
v 0.000000 -0.008761 -0.005058
v 0.000000 -0.009963 -0.001757
v 0.000000 -0.009963 0.001757
v 0.000000 -0.008761 0.005058
v 0.000000 -0.006503 0.007750
v 0.000000 -0.003460 0.009507
v 0.000000 0.000000 0.010117
v 0.000000 0.003460 0.009507
v 0.000000 0.006503 0.007750
v 0.000000 0.008761 0.005058
v 0.000000 0.009963 0.001757
v 0.000000 0.009963 -0.001757
v 0.000000 0.008761 -0.005058
v 0.000000 0.006503 -0.007750
v 0.000000 0.003460 -0.009507
v 0.000000 -0.010117 -0.162578
v 0.003460 -0.009507 -0.162578
v 0.006503 -0.007750 -0.162578
v 0.008761 -0.005058 -0.162578
v 0.009963 -0.001757 -0.162578
v 0.009963 0.001757 -0.162578
v 0.008761 0.005058 -0.162578
v 0.006503 0.007750 -0.162578
v 0.003460 0.009507 -0.162578
v 0.000000 0.010117 -0.162578
v -0.003460 0.009507 -0.162578
v -0.006503 0.007750 -0.162578
v -0.008761 0.005058 -0.162578
v -0.009963 0.001757 -0.162578
v -0.009963 -0.001757 -0.162578
v -0.008761 -0.005058 -0.162578
v -0.006503 -0.007750 -0.162578
v -0.003460 -0.009507 -0.162578
v 0.000000 -0.000000 -0.294086
v 0.000000 -0.028457 -0.162578
v 0.009733 -0.026741 -0.162578
v 0.018292 -0.021799 -0.162578
v 0.024644 -0.014228 -0.162578
v 0.028024 -0.004941 -0.162578
v 0.028024 0.004941 -0.162578
v 0.024644 0.014228 -0.162578
v 0.018292 0.021799 -0.162578
v 0.009733 0.026741 -0.162578
v 0.000000 0.028457 -0.162578
v -0.009733 0.026741 -0.162578
v -0.018292 0.021799 -0.162578
v -0.024644 0.014228 -0.162578
v -0.028024 0.004941 -0.162578
v -0.028024 -0.004941 -0.162578
v -0.024644 -0.014228 -0.162578
v -0.018292 -0.021799 -0.162578
v -0.009733 -0.026741 -0.162578
v 0.000000 -0.010117 0.000000
v 0.003460 -0.009507 0.000000
v 0.006503 -0.007750 0.000000
v 0.008761 -0.005058 0.000000
v 0.009963 -0.001757 0.000000
v 0.009963 0.001757 -0.000000
v 0.008761 0.005058 -0.000000
v 0.006503 0.007750 -0.000000
v 0.003460 0.009507 -0.000000
v 0.000000 0.010117 -0.000000
v -0.003460 0.009507 -0.000000
v -0.006503 0.007750 -0.000000
v -0.008761 0.005058 -0.000000
v -0.009963 0.001757 -0.000000
v -0.009963 -0.001757 0.000000
v -0.008761 -0.005058 0.000000
v -0.006503 -0.007750 0.000000
v -0.003460 -0.009507 0.000000
vn -0.0000 0.2115 -0.9774
vn -0.0000 1.0000 -0.0000
vn 0.3343 0.2115 -0.9184
vn 0.6283 0.2115 -0.7487
vn 0.8465 0.2115 -0.4887
vn 0.9625 0.2115 -0.1697
vn 0.9625 0.2115 0.1697
vn 0.8465 0.2115 0.4887
vn 0.6283 0.2115 0.7487
vn 0.3343 0.2115 0.9184
vn -0.0000 0.2115 0.9774
vn -0.3343 0.2115 0.9184
vn -0.6283 0.2115 0.7487
vn -0.8465 0.2115 0.4887
vn -0.9625 0.2115 0.1697
vn -0.9625 0.2115 -0.1697
vn -0.8465 0.2115 -0.4887
vn -0.6283 0.2115 -0.7487
vn 0.8660 -0.0000 0.5000
vn 0.6429 -0.0000 0.7660
vn -0.3343 0.2115 -0.9184
vn -0.0000 -1.0000 -0.0000
vn -0.9848 -0.0000 -0.1737
vn -0.8660 -0.0000 -0.5000
vn 0.3420 -0.0000 0.9397
vn -0.0000 -0.0000 -1.0000
vn 0.3420 -0.0000 -0.9397
vn -0.6429 -0.0000 -0.7660
vn -0.0000 -0.0000 1.0000
vn 0.6429 -0.0000 -0.7660
vn -0.3420 -0.0000 -0.9397
vn -0.3420 -0.0000 0.9397
vn 0.8660 -0.0000 -0.5000
vn -0.6429 -0.0000 0.7660
vn 0.9848 -0.0000 -0.1737
vn -0.8660 -0.0000 0.5000
vn 0.9848 -0.0000 0.1737
vn -0.9848 -0.0000 0.1737
vn 0.2115 -0.0000 -0.9774
vn 1.0000 -0.0000 -0.0000
vn 0.2115 -0.3343 -0.9184
vn 0.2115 -0.6283 -0.7487
vn 0.2115 -0.8465 -0.4887
vn 0.2115 -0.9625 -0.1697
vn 0.2115 -0.9625 0.1697
vn 0.2115 -0.8465 0.4887
vn 0.2115 -0.6283 0.7487
vn 0.2115 -0.3343 0.9184
vn 0.2115 -0.0000 0.9774
vn 0.2115 0.3343 0.9184
vn 0.2115 0.6283 0.7487
vn 0.2115 0.8465 0.4887
vn 0.2115 0.9625 0.1697
vn 0.2115 0.9625 -0.1697
vn 0.2115 0.8465 -0.4887
vn 0.2115 0.6283 -0.7487
vn -0.0000 -0.8660 0.5000
vn -0.0000 -0.6429 0.7660
vn 0.2115 0.3343 -0.9184
vn -1.0000 -0.0000 -0.0000
vn -0.0000 0.9848 -0.1737
vn -0.0000 0.8660 -0.5000
vn -0.0000 -0.3420 0.9397
vn -0.0000 -0.3420 -0.9397
vn -0.0000 0.6429 -0.7660
vn -0.0000 -0.6429 -0.7660
vn -0.0000 0.3420 -0.9397
vn -0.0000 0.3420 0.9397
vn -0.0000 -0.8660 -0.5000
vn -0.0000 0.6429 0.7660
vn -0.0000 -0.9848 -0.1737
vn -0.0000 0.8660 0.5000
vn -0.0000 -0.9848 0.1737
vn -0.0000 0.9848 0.1737
vn -0.0000 -0.9774 -0.2115
vn 0.3343 -0.9184 -0.2115
vn 0.6283 -0.7487 -0.2115
vn 0.8465 -0.4887 -0.2115
vn 0.9625 -0.1697 -0.2115
vn 0.9625 0.1697 -0.2115
vn 0.8465 0.4887 -0.2115
vn 0.6283 0.7487 -0.2115
vn 0.3343 0.9184 -0.2115
vn -0.0000 0.9774 -0.2115
vn -0.3343 0.9184 -0.2115
vn -0.6283 0.7487 -0.2115
vn -0.8465 0.4887 -0.2115
vn -0.9625 0.1697 -0.2115
vn -0.9625 -0.1697 -0.2115
vn -0.8465 -0.4887 -0.2115
vn -0.6283 -0.7487 -0.2115
vn 0.8660 0.5000 -0.0000
vn 0.6429 0.7660 -0.0000
vn -0.3343 -0.9184 -0.2115
vn -0.9848 -0.1737 -0.0000
vn -0.8660 -0.5000 -0.0000
vn 0.3420 0.9397 -0.0000
vn 0.3420 -0.9397 -0.0000
vn -0.6429 -0.7660 -0.0000
vn 0.6429 -0.7660 -0.0000
vn -0.3420 -0.9397 -0.0000
vn -0.3420 0.9397 -0.0000
vn 0.8660 -0.5000 -0.0000
vn -0.6429 0.7660 -0.0000
vn 0.9848 -0.1737 -0.0000
vn -0.8660 0.5000 -0.0000
vn 0.9848 0.1737 -0.0000
vn -0.9848 0.1737 -0.0000
vt 0.250000 0.490000
vt 0.250000 0.250000
vt 0.332085 0.475526
vt 0.404269 0.433851
vt 0.457846 0.370000
vt 0.486354 0.291676
vt 0.486354 0.208324
vt 0.457846 0.130000
vt 0.404269 0.066149
vt 0.332085 0.024474
vt 0.250000 0.010000
vt 0.167915 0.024474
vt 0.095731 0.066149
vt 0.042154 0.130000
vt 0.013646 0.208324
vt 0.013646 0.291676
vt 0.042154 0.370000
vt 0.095731 0.433851
vt 0.884077 0.172591
vt 0.849515 0.131402
vt 0.167915 0.475526
vt 0.802951 0.395482
vt 0.750000 0.404818
vt 0.750000 0.490000
vt 0.832085 0.475526
vt 0.849516 0.368598
vt 0.904269 0.433851
vt 0.884077 0.327409
vt 0.957846 0.370000
vt 0.902466 0.276884
vt 0.986354 0.291676
vt 0.902466 0.223116
vt 0.986354 0.208324
vt 0.957846 0.130000
vt 0.904269 0.066149
vt 0.802951 0.104518
vt 0.832085 0.024474
vt 0.750000 0.095182
vt 0.750000 0.010000
vt 0.697049 0.104518
vt 0.667915 0.024474
vt 0.650485 0.131402
vt 0.595731 0.066149
vt 0.615923 0.172591
vt 0.542154 0.130000
vt 0.597534 0.223116
vt 0.513646 0.208324
vt 0.597534 0.276884
vt 0.513646 0.291676
vt 0.615923 0.327409
vt 0.542154 0.370000
vt 0.650485 0.368598
vt 0.595731 0.433851
vt 0.697049 0.395482
vt 0.667915 0.475526
s 1
usemtl x
f 75/1/39 74/2/40 76/3/41
f 76/3/41 74/2/40 77/4/42
f 77/4/42 74/2/40 78/5/43
f 78/5/43 74/2/40 79/6/44
f 79/6/44 74/2/40 80/7/45
f 80/7/45 74/2/40 81/8/46
f 81/8/46 74/2/40 82/9/47
f 82/9/47 74/2/40 83/10/48
f 83/10/48 74/2/40 84/11/49
f 84/11/49 74/2/40 85/12/50
f 85/12/50 74/2/40 86/13/51
f 86/13/51 74/2/40 87/14/52
f 87/14/52 74/2/40 88/15/53
f 88/15/53 74/2/40 89/16/54
f 89/16/54 74/2/40 90/17/55
f 90/17/55 74/2/40 91/18/56
f 62/19/57 63/20/58 100/20/58 99/19/57
f 91/18/56 74/2/40 92/21/59
f 92/21/59 74/2/40 75/1/39
f 57/22/60 56/23/60 75/24/60 76/25/60
f 58/26/60 57/22/60 76/25/60 77/27/60
f 59/28/60 58/26/60 77/27/60 78/29/60
f 60/30/60 59/28/60 78/29/60 79/31/60
f 61/32/60 60/30/60 79/31/60 80/33/60
f 62/19/60 61/32/60 80/33/60 81/34/60
f 63/20/60 62/19/60 81/34/60 82/35/60
f 64/36/60 63/20/60 82/35/60 83/37/60
f 65/38/60 64/36/60 83/37/60 84/39/60
f 66/40/60 65/38/60 84/39/60 85/41/60
f 67/42/60 66/40/60 85/41/60 86/43/60
f 68/44/60 67/42/60 86/43/60 87/45/60
f 69/46/60 68/44/60 87/45/60 88/47/60
f 70/48/60 69/46/60 88/47/60 89/49/60
f 71/50/60 70/48/60 89/49/60 90/51/60
f 72/52/60 71/50/60 90/51/60 91/53/60
f 73/54/60 72/52/60 91/53/60 92/55/60
f 56/23/60 73/54/60 92/55/60 75/24/60
f 93/23/60 94/22/60 95/26/60 96/28/60 97/30/60 98/32/60 99/19/60 100/20/60 101/36/60 102/38/60 103/40/60 104/42/60 105/44/60 106/46/60 107/48/60 108/50/60 109/52/60 110/54/60
f 70/48/61 71/50/62 108/50/62 107/48/61
f 63/20/58 64/36/63 101/36/63 100/20/58
f 56/23/26 57/22/64 94/22/64 93/23/26
f 71/50/62 72/52/65 109/52/65 108/50/62
f 64/36/63 65/38/29 102/38/29 101/36/63
f 57/22/64 58/26/66 95/26/66 94/22/64
f 72/52/65 73/54/67 110/54/67 109/52/65
f 65/38/29 66/40/68 103/40/68 102/38/29
f 58/26/66 59/28/69 96/28/69 95/26/66
f 73/54/67 56/23/26 93/23/26 110/54/67
f 66/40/68 67/42/70 104/42/70 103/40/68
f 59/28/69 60/30/71 97/30/71 96/28/69
f 67/42/70 68/44/72 105/44/72 104/42/70
f 60/30/71 61/32/73 98/32/73 97/30/71
f 68/44/72 69/46/74 106/46/74 105/44/72
f 61/32/73 62/19/57 99/19/57 98/32/73
f 69/46/74 70/48/61 107/48/61 106/46/74
usemtl y
f 130/1/75 129/2/26 131/3/76
f 131/3/76 129/2/26 132/4/77
f 132/4/77 129/2/26 133/5/78
f 133/5/78 129/2/26 134/6/79
f 134/6/79 129/2/26 135/7/80
f 135/7/80 129/2/26 136/8/81
f 136/8/81 129/2/26 137/9/82
f 137/9/82 129/2/26 138/10/83
f 138/10/83 129/2/26 139/11/84
f 139/11/84 129/2/26 140/12/85
f 140/12/85 129/2/26 141/13/86
f 141/13/86 129/2/26 142/14/87
f 142/14/87 129/2/26 143/15/88
f 143/15/88 129/2/26 144/16/89
f 144/16/89 129/2/26 145/17/90
f 145/17/90 129/2/26 146/18/91
f 117/19/92 118/20/93 155/20/93 154/19/92
f 146/18/91 129/2/26 147/21/94
f 147/21/94 129/2/26 130/1/75
f 112/22/29 111/23/29 130/24/29 131/25/29
f 113/26/29 112/22/29 131/25/29 132/27/29
f 114/28/29 113/26/29 132/27/29 133/29/29
f 115/30/29 114/28/29 133/29/29 134/31/29
f 116/32/29 115/30/29 134/31/29 135/33/29
f 117/19/29 116/32/29 135/33/29 136/34/29
f 118/20/29 117/19/29 136/34/29 137/35/29
f 119/36/29 118/20/29 137/35/29 138/37/29
f 120/38/29 119/36/29 138/37/29 139/39/29
f 121/40/29 120/38/29 139/39/29 140/41/29
f 122/42/29 121/40/29 140/41/29 141/43/29
f 123/44/29 122/42/29 141/43/29 142/45/29
f 124/46/29 123/44/29 142/45/29 143/47/29
f 125/48/29 124/46/29 143/47/29 144/49/29
f 126/50/29 125/48/29 144/49/29 145/51/29
f 127/52/29 126/50/29 145/51/29 146/53/29
f 128/54/29 127/52/29 146/53/29 147/55/29
f 111/23/29 128/54/29 147/55/29 130/24/29
f 148/23/29 149/22/29 150/26/29 151/28/29 152/30/29 153/32/29 154/19/29 155/20/29 156/36/29 157/38/29 158/40/29 159/42/29 160/44/29 161/46/29 162/48/29 163/50/29 164/52/29 165/54/29
f 125/48/95 126/50/96 163/50/96 162/48/95
f 118/20/93 119/36/97 156/36/97 155/20/93
f 111/23/22 112/22/98 149/22/98 148/23/22
f 126/50/96 127/52/99 164/52/99 163/50/96
f 119/36/97 120/38/2 157/38/2 156/36/97
f 112/22/98 113/26/100 150/26/100 149/22/98
f 127/52/99 128/54/101 165/54/101 164/52/99
f 120/38/2 121/40/102 158/40/102 157/38/2
f 113/26/100 114/28/103 151/28/103 150/26/100
f 128/54/101 111/23/22 148/23/22 165/54/101
f 121/40/102 122/42/104 159/42/104 158/40/102
f 114/28/103 115/30/105 152/30/105 151/28/103
f 122/42/104 123/44/106 160/44/106 159/42/104
f 115/30/105 116/32/107 153/32/107 152/30/105
f 123/44/106 124/46/108 161/46/108 160/44/106
f 116/32/107 117/19/92 154/19/92 153/32/107
f 124/46/108 125/48/95 162/48/95 161/46/108
usemtl z
f 20/1/1 19/2/2 21/3/3
f 21/3/3 19/2/2 22/4/4
f 22/4/4 19/2/2 23/5/5
f 23/5/5 19/2/2 24/6/6
f 24/6/6 19/2/2 25/7/7
f 25/7/7 19/2/2 26/8/8
f 26/8/8 19/2/2 27/9/9
f 27/9/9 19/2/2 28/10/10
f 28/10/10 19/2/2 29/11/11
f 29/11/11 19/2/2 30/12/12
f 30/12/12 19/2/2 31/13/13
f 31/13/13 19/2/2 32/14/14
f 32/14/14 19/2/2 33/15/15
f 33/15/15 19/2/2 34/16/16
f 34/16/16 19/2/2 35/17/17
f 35/17/17 19/2/2 36/18/18
f 7/19/19 8/20/20 45/20/20 44/19/19
f 36/18/18 19/2/2 37/21/21
f 37/21/21 19/2/2 20/1/1
f 2/22/22 1/23/22 20/24/22 21/25/22
f 3/26/22 2/22/22 21/25/22 22/27/22
f 4/28/22 3/26/22 22/27/22 23/29/22
f 5/30/22 4/28/22 23/29/22 24/31/22
f 6/32/22 5/30/22 24/31/22 25/33/22
f 7/19/22 6/32/22 25/33/22 26/34/22
f 8/20/22 7/19/22 26/34/22 27/35/22
f 9/36/22 8/20/22 27/35/22 28/37/22
f 10/38/22 9/36/22 28/37/22 29/39/22
f 11/40/22 10/38/22 29/39/22 30/41/22
f 12/42/22 11/40/22 30/41/22 31/43/22
f 13/44/22 12/42/22 31/43/22 32/45/22
f 14/46/22 13/44/22 32/45/22 33/47/22
f 15/48/22 14/46/22 33/47/22 34/49/22
f 16/50/22 15/48/22 34/49/22 35/51/22
f 17/52/22 16/50/22 35/51/22 36/53/22
f 18/54/22 17/52/22 36/53/22 37/55/22
f 1/23/22 18/54/22 37/55/22 20/24/22
f 38/23/22 39/22/22 40/26/22 41/28/22 42/30/22 43/32/22 44/19/22 45/20/22 46/36/22 47/38/22 48/40/22 49/42/22 50/44/22 51/46/22 52/48/22 53/50/22 54/52/22 55/54/22
f 15/48/23 16/50/24 53/50/24 52/48/23
f 8/20/20 9/36/25 46/36/25 45/20/20
f 1/23/26 2/22/27 39/22/27 38/23/26
f 16/50/24 17/52/28 54/52/28 53/50/24
f 9/36/25 10/38/29 47/38/29 46/36/25
f 2/22/27 3/26/30 40/26/30 39/22/27
f 17/52/28 18/54/31 55/54/31 54/52/28
f 10/38/29 11/40/32 48/40/32 47/38/29
f 3/26/30 4/28/33 41/28/33 40/26/30
f 18/54/31 1/23/26 38/23/26 55/54/31
f 11/40/32 12/42/34 49/42/34 48/40/32
f 4/28/33 5/30/35 42/30/35 41/28/33
f 12/42/34 13/44/36 50/44/36 49/42/34
f 5/30/35 6/32/37 43/32/37 42/30/35
f 13/44/36 14/46/38 51/46/38 50/44/36
f 6/32/37 7/19/19 44/19/19 43/32/37
f 14/46/38 15/48/23 52/48/23 51/46/38
